PathFileType	4	(X/Y/Z)	C:/Users/beibeiliu/ov580/test_trc/User2\sequence.4_training_dense_left.trc
DataRate	CameraRate	NumFrames	NumMarkers	Units	OrigDataRate	OrigDataStartFrame	OrigNumFrames
120	120	21	19	mm	120	1	80
Frame#	Time	ThumbCMC			ThumbMCP			ThumbIP			ThumbTip			IndexMCP			IndexPIP			IndexTip			MiddleMCP			MiddlePIP			MiddleTip			RingMCP			RingPIP			RingTip			PinkyMCP			PinkyPIP			PinkyTip			BackHand1			BackHand2			BackHand3	
		X0	Y0	Z0	X1	Y1	Z1	X2	Y2	Z2	X3	Y3	Z3	X4	Y4	Z4	X5	Y5	Z5	X6	Y6	Z6	X7	Y7	Z7	X8	Y8	Z8	X9	Y9	Z9	X10	Y10	Z10	X11	Y11	Z11	X12	Y12	Z12	X13	Y13	Z13	X14	Y14	Z14	X15	Y15	Z15	X16	Y16	Z16	X17	Y17	Z17	X18	Y18	Z18	
0	0	-131.198	-51.5038	-3.05781	-110.281	-56.7643	-22.7335	-84.7119	-58.598	-47.002	-67.1346	-63.4723	-66.2113	-148.742	-30.9145	-84.9473	-141.4	-30.1323	-111.904	-137.064	-29.9342	-145.256	-173.69	-25.8578	-91.9962	-174.716	-22.7562	-124.199	-177.246	-23.6377	-156.824	-198.139	-29.5353	-86.7327	-202.675	-26.0929	-110.365	-205.938	-26.8781	-140.847	-224.987	-42.8055	-67.2538	-234.044	-39.5155	-88.9828	-240.06	-33.7632	-115.513	-197.561	-30.7838	-32.509	-197.428	-29.0761	5.33508	-163.026	-27.1032	-16.2391	
1	0.00833333	-134.291	-51.0865	-5.05222	-111.014	-56.5479	-24.8301	-94.6788	-62.4094	-52.3356	-80.0093	-69.3353	-77.0337	-150.712	-26.5591	-85.3444	-144.557	-24.8942	-114.995	-140.972	-26.6139	-145.351	-174.689	-20.8824	-92.804	-175.53	-20.7922	-122.919	-177.974	-36.6237	-158.042	-203.509	-25.6995	-82.6268	-201.973	-24.628	-112.269	-201.086	-43.6206	-145.839	-221.821	-42.6434	-63.9735	-233.986	-39.6513	-98.5084	-233.761	-50.7455	-122.249	-201.956	-31.8693	-28.1191	-199.576	-28.3158	3.53627	-164.846	-26.1593	-16.3678	
2	0.0166667	-135.654	-50.8615	-3.67123	-115.784	-60.5868	-26.1161	-101.875	-69.7955	-62.7565	-102	-79.0324	-83.448	-146.249	-20.2598	-85.9054	-145.873	-18.6273	-110.85	-138.509	-19.2892	-139.01	-178.074	-19.0541	-89.3733	-175.965	-27.1851	-125.204	-172.038	-59.5966	-144.434	-197.297	-25.9836	-82.8584	-197.115	-36.5263	-118.008	-190.664	-69.3645	-128.288	-221.589	-41.4884	-68.6994	-224.094	-50.9039	-102.59	-211.032	-75.5143	-113.163	-203.979	-29.1	-28.34	-201.004	-28.5634	3.49805	-168.213	-23.7929	-12.2187	
3	0.025	-133.549	-50.1999	-9.5549	-122.206	-65.7296	-34.2753	-118.03	-78.3721	-67.8755	-123.928	-88.5897	-89.7685	-149.335	-17.6463	-84.0066	-141.871	-12.8982	-111.942	-143.997	-14.7668	-136.583	-173.951	-25.7881	-90.9701	-170.625	-49.1093	-123.354	-165.655	-86.3383	-115.16	-192.748	-36.0196	-91.095	-188.345	-59.9105	-114.102	-177.355	-88.0781	-101.92	-211.764	-49.7483	-73.441	-204.084	-69.8371	-101.332	-190.643	-96.8223	-90.3162	-202.629	-29.84	-32.2977	-206.199	-29.1742	1.67035	-167.983	-21.2545	-14.6404	
4	0.0333333	-137.617	-52.5311	-8.01642	-123.462	-70.6167	-39.3543	-121.034	-86.3091	-70.5589	-135.716	-95.5347	-94.5549	-146.289	-17.465	-82.0728	-143.287	-14.0475	-108.491	-139.134	-12.4196	-136.501	-168.353	-35.222	-99.531	-161.935	-68.4563	-115.546	-158.033	-96.3263	-94.2865	-193.293	-49.8914	-93.7216	-179.525	-79.0151	-106.279	-172.542	-98.4917	-77.1471	-211.318	-61.3191	-81.034	-193.933	-84.9755	-93.4318	-182.363	-103.714	-68.4156	-203.305	-29.5849	-34.4626	-200.742	-28.6511	-1.50213	-168.601	-22.4302	-16.5076	
5	0.0416667	-136.383	-52.2488	-13.5659	-123.013	-72.0524	-39.3742	-124.782	-88.0338	-73.5229	-139.625	-98.4076	-94.968	-144.891	-18.0707	-82.6946	-144.883	-15.345	-114.254	-138.999	-12.6687	-137.576	-170.239	-42.3904	-99.3575	-160.037	-73.9953	-111.896	-158.088	-98.9011	-81.4594	-191.394	-56.3531	-94.7446	-178.607	-87.4662	-100.52	-171.075	-99.6629	-70.5186	-206.617	-65.8208	-82.303	-190.132	-91.7854	-88.6344	-180.804	-101.602	-58.1316	-199.925	-30.4	-33.0907	-202.948	-31.4113	-1.59	-165.418	-22.2124	-16.3983	
6	0.05	-132.743	-52.1733	-12.5751	-119.044	-72.9216	-40.0411	-122.09	-89.4258	-68.3083	-138.203	-97.1492	-91.3584	-146.64	-17.4142	-87.3227	-139.406	-14.562	-108.745	-138.625	-10.9589	-136.63	-169.082	-42.9155	-99.4579	-158.09	-72.1013	-111.247	-153.616	-98.1926	-77.5269	-185.483	-54.3147	-92.5993	-176.108	-85.5575	-100.075	-165.25	-96.5369	-64.0975	-206.63	-69.0391	-82.7053	-185.979	-97.3119	-83.0093	-177.617	-98.6014	-53.2952	-197.476	-32.5511	-32.9789	-203.872	-32.8677	-0.0888807	-168.282	-21.9733	-14.6085	
7	0.0583333	-132.22	-50.9953	-6.91945	-117.274	-70.4293	-36.5227	-116.92	-84.4834	-73.5226	-133.393	-93.0086	-95.222	-144.965	-12.1326	-83.1798	-137.506	-6.93457	-110.493	-138.44	-2.87784	-133.838	-166.149	-37.3324	-98.3496	-157.229	-67.1145	-111.678	-147.978	-92.2155	-77.6758	-183.672	-50.7387	-93.8202	-176.104	-82.4964	-100.625	-166.434	-93.3846	-68.4696	-204.225	-66.4109	-85.7908	-185.256	-91.539	-86.6824	-175.355	-93.2792	-52.4805	-202.161	-32.2365	-32.7753	-203.287	-32.7981	-1.27252	-165.252	-19.5009	-13.5097	
8	0.0666667	-133.101	-47.6925	-9.64515	-118.491	-63.7477	-39.3973	-118.039	-75.5687	-71.4712	-133.986	-82.2803	-97.0429	-146.426	-5.41565	-78.173	-140.505	3.53464	-107.875	-134.664	11.2159	-133.88	-166.147	-27.646	-94.7144	-156.795	-61.6102	-112.756	-148.42	-85.1266	-83.2406	-184.152	-45.1467	-96.0522	-173.215	-74.1001	-103.858	-161.731	-85.0405	-69.0444	-204.568	-59.2583	-83.5484	-183.379	-84.5222	-90.9869	-174	-91.4361	-57.9403	-200.014	-29.8475	-33.8064	-205.06	-34.2649	1.4909	-168.15	-20.0271	-11.8793	
9	0.075	-134.775	-43.3116	-6.91114	-112.754	-57.0972	-38.6341	-109.669	-67.7089	-70.9799	-127.904	-75.5383	-93.4606	-145.765	1.68101	-76.4979	-143.814	9.5254	-100.645	-139.398	19.628	-127.878	-162.63	-20.8417	-95.322	-149.756	-49.9251	-113.486	-144.25	-77.5541	-86.1931	-178.732	-37.4514	-96.3602	-170.647	-66.0897	-106.653	-160.286	-79.7962	-72.4972	-198.112	-51.9729	-82.2819	-178.769	-80.1876	-91.7808	-170.873	-85.7594	-61.6522	-202.736	-28.2929	-33.0639	-205.021	-31.6402	-2.00418	-168.361	-16.5526	-9.49856	
10	0.0833333	-132.568	-40.8282	-8.48315	-114.935	-54.3698	-37.994	-112.603	-64.0849	-73.0721	-128.456	-70.141	-98.5588	-148.324	4.0273	-76.374	-141.874	14.3405	-99.2568	-140.94	24.7964	-127.878	-164.447	-17.5453	-95.888	-152.486	-44.246	-113.352	-148.762	-74.8996	-87.6146	-185.872	-36.3945	-94.4786	-171.279	-61.8817	-106.309	-160.077	-77.0606	-71.685	-198.723	-48.8792	-82.0281	-179.352	-75.9747	-92.9892	-171.752	-83.2811	-62.8818	-202.591	-26.288	-31.3665	-203.614	-31.0773	-1.83653	-170.201	-14.9001	-9.49436	
11	0.0916667	-138.202	-44.5455	-8.15426	-116.646	-57.1478	-40.0712	-116.686	-66.3128	-75.354	-136.158	-72.06	-96.8963	-152.414	3.74603	-77.5172	-149.147	14.0913	-103.051	-150.198	21.7865	-126.196	-172.086	-18.2528	-93.2672	-162.809	-48.4758	-114.693	-153.105	-77.585	-86.0008	-192.048	-36.2076	-91.4505	-177.073	-61.2578	-105.227	-167.673	-79.9974	-75.0429	-202.844	-50.4629	-84.9164	-187.272	-75.0218	-91.6522	-177.015	-85.9242	-59.719	-205.754	-23.517	-31.1723	-207.839	-30.3653	1.94225	-168.283	-15.7576	-11.324	
12	0.1	-141.995	-43.4396	-13.8659	-127.58	-61.1371	-41.2307	-123.792	-74.6279	-76.0921	-142.19	-81.3697	-99.4104	-159.276	-2.29482	-83.2977	-157.1	5.17739	-107.903	-160.575	10.1519	-131.674	-177.855	-27.0355	-96.8436	-170.518	-60.2767	-112.982	-161.322	-85.5814	-86.6991	-200.558	-45.4543	-92.3164	-182.276	-72.8099	-101.253	-172.015	-86.1564	-70.0339	-214.365	-59.1791	-78.6669	-195.497	-84.7781	-86.2594	-178.646	-89.1755	-54.448	-205.202	-25.9457	-32.7958	-207.535	-30.0492	4.56513	-173.457	-17.8237	-11.682	
13	0.108333	-141.223	-43.6877	-10.129	-124.095	-64.3783	-40.2003	-124.504	-82.5469	-71.8765	-143.838	-95.3455	-91.6266	-167.392	-17.45	-85.975	-165.683	-14.2516	-112.446	-168.26	-14.0779	-143.611	-181.748	-43.7975	-99.5278	-168.827	-76.9086	-108.068	-157.374	-96.2892	-78.482	-198.265	-62.0915	-91.6735	-184.717	-88.268	-94.8446	-169.015	-96.1116	-62.7375	-209.858	-74.4689	-77.879	-189.198	-100.685	-72.0589	-175.846	-93.6215	-44.6385	-208.684	-32.8127	-34.9141	-210.438	-28.5837	0.180865	-177.377	-16.3597	-13.6128	
14	0.116667	-139.161	-34.0641	-9.40762	-118.647	-58.3997	-29.267	-113.023	-83.972	-56.5493	-130.289	-102.392	-73.7011	-165.936	-31.1909	-91.8559	-163.904	-35.7726	-116.774	-162.799	-43.2331	-144.721	-173.676	-58.1821	-93.784	-155.48	-90.6263	-97.7917	-143.66	-101.966	-58.0705	-187.382	-78.9346	-84.4129	-168.296	-104.548	-79.995	-154.891	-101.963	-48.904	-200.424	-93.7367	-68.3563	-176.593	-111.888	-58.9434	-165.415	-96.6157	-26.5883	-211.478	-41.5484	-34.1066	-209.923	-32.2964	-3.47789	-181.014	-17.3734	-21.0408	
15	0.125	-139.343	-24.3257	-7.07927	-114.303	-48.6466	-22.7091	-101.239	-76.9478	-45.7189	-109.256	-100.298	-55.6052	-156.737	-37.6851	-88.9339	-150.051	-46.0155	-114.678	-149.081	-62.1318	-141.692	-163.212	-69.1066	-86.3362	-133.642	-96.8449	-81.8389	-124.801	-98.9937	-45.1919	-172.362	-88.6905	-73.9051	-147.56	-107.467	-65.5138	-138.262	-100.411	-31.4241	-182.561	-102.426	-56.3057	-154.707	-111.371	-42.074	-150.705	-91.0258	-14.9887	-203.077	-49.2363	-36.3367	-210.335	-34.3691	-4.92632	-181.334	-15.6989	-26.9635	
16	0.133333	-142.411	-12.4126	-3.44276	-109.774	-35.5797	-16.4603	-92.3834	-60.813	-29.4006	-95.7911	-89.2186	-42.5812	-149.109	-40.1005	-82.5461	-137.979	-54.6964	-108.871	-129.602	-67.3233	-129.837	-149.74	-72.6138	-75.5384	-118.63	-94.947	-66.2937	-111.054	-88.1237	-28.6705	-151.526	-89.3987	-63.1218	-127.004	-105.092	-47.2678	-123.045	-88.2722	-13.0428	-161.867	-102.986	-44.1254	-136.747	-105.709	-26.5858	-139.331	-83.4013	-3.53552	-198.891	-53.144	-30.8166	-209.716	-36.9235	-8.1422	-183.795	-18.1247	-28.1722	
17	0.141667	-149.073	-0.259135	-2.75492	-115.551	-14.58	-4.99658	-88.8839	-36.9618	-15.8553	-81.207	-65.5498	-26.3034	-140.018	-32.3253	-77.3008	-123.465	-48.5076	-100.088	-108.785	-60.0158	-117.524	-131.239	-67.642	-68.0816	-101.122	-77.5098	-52.8265	-101.497	-65.9785	-11.268	-136.018	-85.6195	-52.0387	-110.544	-91.2562	-34.6945	-111.625	-67.2318	-4.50634	-146.978	-94.4569	-34.3517	-120.346	-91.1048	-11.3827	-128.701	-69.602	6.01199	-191.031	-54.7285	-31.8833	-210.041	-42.855	-8.68364	-187.717	-18.576	-26.7103	
18	0.15	-161.165	12.9212	-1.93045	-127.143	8.56442	-0.133544	-90.2991	-7.11123	-9.43483	-81.3846	-31.9325	-14.1425	-135.067	-19.68	-70.1333	-113.38	-26.947	-90.388	-92.8319	-39.0677	-105.66	-122.255	-47.8314	-60.1481	-88.2	-52.9213	-37.681	-92.9495	-41.9824	-4.01962	-123.024	-67.1571	-43.3982	-96.3219	-65.8269	-20.6245	-108.049	-43.0044	8.53487	-131.121	-80.0233	-25.0137	-107.771	-65.9782	-3.36771	-121.559	-46.2759	12.5658	-184.46	-51.0423	-28.2041	-210.657	-44.4695	-8.05242	-190.174	-16.8488	-24.3124	
19	0.158333	-175.572	20.2516	0.119599	-139.275	31.8463	1.31726	-104.259	24.3457	-3.88834	-82.9042	3.58161	-8.23874	-132.813	-7.28201	-69.396	-113.158	-7.0122	-82.6772	-87.1504	-12.4935	-97.5944	-113.564	-27.7693	-54.986	-84.6331	-18.9165	-34.6383	-92.5428	-12.0031	2.25292	-109.885	-47.2222	-36.2529	-90.4395	-36.6606	-17.1443	-107.392	-17.9046	13.0815	-120.561	-62.4013	-18.9718	-99.9606	-45.0142	3.10434	-121.137	-27.133	20.8282	-177.304	-47.6395	-29.0444	-205.848	-43.5869	-4.96672	-194.408	-9.05016	-25.2707	
20	0.166667	-188.733	20.8483	-1.02463	-153.287	41.9461	-3.29562	-116.983	44.3694	-7.65995	-92.1598	26.9095	-9.24378	-140.002	2.01699	-66.2281	-113.557	3.44245	-84.4967	-88.6906	4.42273	-98.9184	-115.603	-15.477	-51.5947	-87.3723	2.64498	-34.664	-97.9342	12.0909	3.73585	-108.806	-30.5711	-33.7266	-88.5883	-13.1374	-10.3337	-109.816	1.87194	12.0684	-112.721	-45.0487	-15.5489	-98.2632	-23.5406	5.68522	-122.28	-8.00886	20.0891	-170.597	-44.9859	-24.6692	-197.879	-46.9426	-7.17854	-193.156	-15.863	-27.9921	
